<?xml version="1.0" encoding="utf-8"?>
<!-- Generator: Adobe Illustrator 27.4.1, SVG Export Plug-In . SVG Version: 6.00 Build 0)  -->
<svg version="1.1" id="Ebene_1" xmlns="http://www.w3.org/2000/svg" xmlns:xlink="http://www.w3.org/1999/xlink" x="0px" y="0px"
	 viewBox="0 0 541 679" style="enable-background:new 0 0 541 679;" xml:space="preserve">
<style type="text/css">
	.st0{fill:#009639;}
	.st1{fill:#FFFFFF;}
</style>
<g>
	<g>
		<path class="st0" d="M11.1,12h516.3v257c0,173.7-46.6,323.7-258.2,395.2C57.7,592.7,11.1,442.7,11.1,269V12z"/>
		<path d="M269.3,668.2l-1.2-0.4c-100-33.8-168.8-86.5-210.5-161C23.4,445.5,7.4,369.9,7.4,269V8.3h523.7V269
			c0,100.9-16,176.4-50.2,237.7c-41.7,74.5-110.5,127.2-210.5,161L269.3,668.2z M14.8,15.7V269c0,150.7,30.3,315,254.5,391.3
			C493.5,584,523.7,419.7,523.7,269V15.7H14.8z"/>
	</g>
	<g>
		<path class="st1" d="M256.8,61.2c0.8-6.1,6.9-10.5,13.8-9.8c5.8,0.6,10.4,4.7,11.1,9.8v556c-0.8,6.1-6.9,10.5-13.8,9.8
			c-5.8-0.6-10.4-4.7-11.1-9.8V61.2z"/>
		<path d="M269.3,630.4c-0.6,0-1.1,0-1.7-0.1c-7.4-0.7-13.2-6-14.1-12.7l0-0.4V61l0-0.2c1-7.9,8.8-13.6,17.4-12.7
			c7.4,0.7,13.2,6,14.1,12.7l0,0.4v556.2l0,0.2C284.1,624.9,277.2,630.4,269.3,630.4z M260.2,616.9c0.5,3.5,3.9,6.3,8.1,6.7
			c5,0.5,9.5-2.5,10.1-6.7V61.4c-0.5-3.5-3.9-6.3-8.1-6.7c-5-0.5-9.5,2.5-10.1,6.7V616.9z"/>
	</g>
	<g>
		<path class="st1" d="M221.6,554.7c0,5.9-4.9,10.6-11,10.6c-6.1,0-11-4.8-11-10.6V177.9c0-5.2,4.9-9.5,11-9.5c6.1,0,11,4.2,11,9.5
			v374.8c0,7.3,6.2,13.2,13.9,13.2c7.7,0,13.9-5.9,13.9-13.2V180.3c0-6.9-6.2-12.4-13.9-12.4c-7.7,0-13.9,5.6-13.9,12.4 M317,554.7
			c0,5.9,4.9,10.6,11,10.6c6.1,0,11-4.8,11-10.6V177.9c0-5.2-4.9-9.5-11-9.5c-6.1,0-11,4.2-11,9.5v374.8c0,7.3-6.2,13.2-13.9,13.2
			s-13.9-5.9-13.9-13.2V180.3c0-6.9,6.2-12.4,13.9-12.4c7.7,0,13.9,5.6,13.9,12.4 M249.3,184.4c0-9.4,8.9-17,20-17
			c11,0,20,7.6,20,17v365.4c0,9-8.9,16.3-20,16.3c-11,0-20-7.3-20-16.3 M300.3,123.1V82h-37c-37-0.3-57-19.2-73.1-40.2
			c-10.2,20.1-13.2,32.5-13.6,51.5c0.6,22.2,3.3,35.7,16.3,59.2c20.6-21,39.5-28.9,68.5-29.3L300.3,123.1z"/>
		<path d="M269.3,569.4c-7.9,0-14.9-3.3-19.1-8.4c-3,4.8-8.5,8.1-14.8,8.1c-5.4,0-10.2-2.4-13.4-6.1c-2.6,3.4-6.8,5.7-11.5,5.7
			c0,0,0,0,0,0c-7.9,0-14.3-6.3-14.3-14l0-376.8c0-7.1,6.4-12.8,14.4-12.8c0,0,0,0,0,0c4.7,0,8.9,2.1,11.5,5.2
			c3.2-3.5,8-5.8,13.3-5.8c6.4,0,12,3.2,15,8c4.2-5.1,11.1-8.4,18.9-8.4s14.6,3.3,18.9,8.4c3-4.8,8.6-8,15-8
			c5.4,0,10.2,2.3,13.3,5.8c2.6-3.2,6.8-5.2,11.5-5.2c0,0,0,0,0,0c7.9,0,14.3,5.7,14.4,12.8v376.8c0,7.7-6.4,14-14.3,14c0,0,0,0,0,0
			c-4.7,0-8.9-2.2-11.5-5.7c-3.2,3.7-8,6.1-13.4,6.1c-6.3,0-11.8-3.2-14.8-8.1C284.1,566.1,277.1,569.4,269.3,569.4z M252.6,549.8
			c0,7.1,7.5,12.9,16.6,12.9c9.2,0,16.6-5.8,16.6-12.9V184.4c0-7.5-7.5-13.7-16.6-13.7c-9.2,0-16.6,6.1-16.6,13.7V549.8z
			 M303.1,171.2c-5.8,0-10.5,4.1-10.5,9.1v372.4c0,5.4,4.7,9.8,10.5,9.8s10.5-4.4,10.5-9.8V180.3
			C313.7,175.2,308.9,171.2,303.1,171.2z M224.9,180.3v372.4c0,5.4,4.7,9.8,10.5,9.8s10.5-4.4,10.5-9.8V180.3c0-5-4.7-9.1-10.5-9.1
			S224.9,175.2,224.9,180.3z M320.3,554.7c0,4,3.5,7.3,7.7,7.3c0,0,0,0,0,0c4.2,0,7.7-3.3,7.7-7.3V177.9c0-3.4-3.5-6.1-7.7-6.1
			c0,0,0,0,0,0c-4.2,0-7.7,2.8-7.7,6.1v374.8c0,0.7,0,1.4-0.1,2.1H320.3z M210.5,171.8c-4.2,0-7.7,2.8-7.7,6.1v376.8
			c0,4,3.5,7.3,7.7,7.3c0,0,0,0,0,0c4.2,0,7.7-3.3,7.7-7.3h0.1c-0.1-0.7-0.1-1.4-0.1-2.1V177.9C218.2,174.5,214.8,171.8,210.5,171.8
			C210.5,171.8,210.5,171.8,210.5,171.8z M192.2,158l-2.2-3.9c-13.5-24.5-16.1-38.5-16.7-60.7l0-0.1l0-0.1c0.5-20.1,3.9-33,14-52.9
			l2.4-4.7l3.2,4.2c15.4,20.1,34.6,38.7,70.5,38.9l40.3,0v47.8h-42.2c-28.4,0.4-46.4,8.1-66.1,28.3L192.2,158z M180,93.3
			c0.5,20.2,2.7,32.7,13.8,53.7c19.8-19,39.1-26.7,67.6-27.1H297V85.3h-33.7c-36.2-0.3-56.5-17.6-72.4-37.4
			C183,64.4,180.4,75.7,180,93.3z"/>
	</g>
	<g>
		<path class="st0" d="M193.1,202.2h152.4v32.5H193.1V202.2z M193.1,499.1h152.4v32.5H193.1V499.1z M193.1,481h2.2l150.2-178.3
			v-49.9h-2.2L193.1,431.2V481z"/>
		<path d="M345.5,535H193.1c-1.8,0-3.3-1.5-3.3-3.3v-32.5c0-1.8,1.5-3.3,3.3-3.3h152.4c1.8,0,3.3,1.5,3.3,3.3v32.5
			C348.8,533.5,347.3,535,345.5,535z M196.4,528.3h145.7v-25.9H196.4V528.3z M195.3,484.4h-2.2c-1.8,0-3.3-1.5-3.3-3.3v-49.9
			c0-0.8,0.3-1.5,0.8-2.1l150.2-178.3c0.6-0.8,1.6-1.2,2.5-1.2h2.2c1.8,0,3.3,1.5,3.3,3.3v49.9c0,0.8-0.3,1.5-0.8,2.1L197.8,483.2
			C197.2,483.9,196.3,484.4,195.3,484.4z M196.4,432.4v42.2l145.7-173v-42.2L196.4,432.4z M345.5,238H193.1c-1.8,0-3.3-1.5-3.3-3.3
			v-32.5c0-1.8,1.5-3.3,3.3-3.3h152.4c1.8,0,3.3,1.5,3.3,3.3v32.5C348.8,236.5,347.3,238,345.5,238z M196.4,231.4h145.7v-25.9H196.4
			V231.4z"/>
	</g>
	<g>
		<path class="st0" d="M193.1,252.9h2.2l150.2,178.3V481h-2.2L193.1,302.8V252.9z"/>
		<path d="M345.5,484.4h-2.2c-1,0-1.9-0.4-2.5-1.2L190.5,304.9c-0.5-0.6-0.8-1.4-0.8-2.1v-49.9c0-1.8,1.5-3.3,3.3-3.3h2.2
			c1,0,1.9,0.4,2.5,1.2L348,429c0.5,0.6,0.8,1.4,0.8,2.1V481C348.8,482.9,347.3,484.4,345.5,484.4z M196.4,301.5l145.7,173v-42.2
			l-145.7-173V301.5z"/>
	</g>
</g>
</svg>
